<mxfile host="app.diagrams.net" modified="2024-01-07T08:52:56.487Z" agent="Mozilla/5.0 (Windows NT 10.0; Win64; x64) AppleWebKit/537.36 (KHTML, like Gecko) Chrome/121.0.0.0 Safari/537.36 Edg/121.0.0.0" etag="BDmrNuco9mnwKyuJ0ug4" version="22.1.17" type="github">
  <diagram name="第 1 页" id="R-ae_u19jV5YRMJY4c-l">
    <mxGraphModel dx="2889" dy="1208" grid="1" gridSize="10" guides="1" tooltips="1" connect="1" arrows="1" fold="1" page="1" pageScale="1" pageWidth="827" pageHeight="1169" math="0" shadow="0">
      <root>
        <mxCell id="0" />
        <mxCell id="1" parent="0" />
        <mxCell id="Gc-hXASb5AS-bMlCDjsN-22" value="联系人" style="rounded=1;whiteSpace=wrap;html=1;sketch=1;hachureGap=4;jiggle=2;curveFitting=1;fontFamily=Architects Daughter;fontSource=https%3A%2F%2Ffonts.googleapis.com%2Fcss%3Ffamily%3DArchitects%2BDaughter;fontSize=20;align=right;" vertex="1" parent="1">
          <mxGeometry x="935" y="620" width="340" height="80" as="geometry" />
        </mxCell>
        <mxCell id="Gc-hXASb5AS-bMlCDjsN-3" value="应用C" style="rounded=1;whiteSpace=wrap;html=1;sketch=1;hachureGap=4;jiggle=2;curveFitting=1;fontFamily=Architects Daughter;fontSource=https%3A%2F%2Ffonts.googleapis.com%2Fcss%3Ffamily%3DArchitects%2BDaughter;fontSize=20;align=left;" vertex="1" parent="1">
          <mxGeometry x="40" y="320" width="340" height="80" as="geometry" />
        </mxCell>
        <mxCell id="Gc-hXASb5AS-bMlCDjsN-2" value="应用B" style="rounded=1;whiteSpace=wrap;html=1;sketch=1;hachureGap=4;jiggle=2;curveFitting=1;fontFamily=Architects Daughter;fontSource=https%3A%2F%2Ffonts.googleapis.com%2Fcss%3Ffamily%3DArchitects%2BDaughter;fontSize=20;align=left;" vertex="1" parent="1">
          <mxGeometry x="40" y="180" width="340" height="80" as="geometry" />
        </mxCell>
        <mxCell id="Gc-hXASb5AS-bMlCDjsN-1" value="应用A" style="rounded=1;whiteSpace=wrap;html=1;sketch=1;hachureGap=4;jiggle=2;curveFitting=1;fontFamily=Architects Daughter;fontSource=https%3A%2F%2Ffonts.googleapis.com%2Fcss%3Ffamily%3DArchitects%2BDaughter;fontSize=20;align=left;" vertex="1" parent="1">
          <mxGeometry x="40" y="50" width="340" height="80" as="geometry" />
        </mxCell>
        <mxCell id="-hSfUmGaPbUxPJK1ZaHa-3" value="ContentProvider&lt;br&gt;内容提供者" style="rounded=1;whiteSpace=wrap;html=1;hachureGap=4;fontFamily=Architects Daughter;fontSource=https%3A%2F%2Ffonts.googleapis.com%2Fcss%3Ffamily%3DArchitects%2BDaughter;fontSize=20;sketch=1;curveFitting=1;jiggle=2;" parent="1" vertex="1">
          <mxGeometry x="920" y="190" width="230" height="60" as="geometry" />
        </mxCell>
        <mxCell id="-hSfUmGaPbUxPJK1ZaHa-7" style="edgeStyle=orthogonalEdgeStyle;rounded=1;hachureGap=4;orthogonalLoop=1;jettySize=auto;html=1;entryX=0.5;entryY=1;entryDx=0;entryDy=0;strokeColor=#0B4D6A;fontFamily=Architects Daughter;fontSource=https%3A%2F%2Ffonts.googleapis.com%2Fcss%3Ffamily%3DArchitects%2BDaughter;fontSize=16;sketch=1;curveFitting=1;jiggle=2;" parent="1" source="-hSfUmGaPbUxPJK1ZaHa-5" target="-hSfUmGaPbUxPJK1ZaHa-3" edge="1">
          <mxGeometry relative="1" as="geometry" />
        </mxCell>
        <mxCell id="-hSfUmGaPbUxPJK1ZaHa-5" value="data数据" style="shape=cylinder3;whiteSpace=wrap;html=1;boundedLbl=1;backgroundOutline=1;size=15;hachureGap=4;fontFamily=Architects Daughter;fontSource=https%3A%2F%2Ffonts.googleapis.com%2Fcss%3Ffamily%3DArchitects%2BDaughter;fontSize=20;rounded=1;sketch=1;curveFitting=1;jiggle=2;" parent="1" vertex="1">
          <mxGeometry x="1005" y="350" width="60" height="80" as="geometry" />
        </mxCell>
        <mxCell id="-hSfUmGaPbUxPJK1ZaHa-18" style="edgeStyle=orthogonalEdgeStyle;rounded=1;hachureGap=4;orthogonalLoop=1;jettySize=auto;html=1;strokeColor=#0B4D6A;fontFamily=Architects Daughter;fontSource=https%3A%2F%2Ffonts.googleapis.com%2Fcss%3Ffamily%3DArchitects%2BDaughter;fontSize=16;sketch=1;curveFitting=1;jiggle=2;" parent="1" source="-hSfUmGaPbUxPJK1ZaHa-10" edge="1">
          <mxGeometry relative="1" as="geometry">
            <mxPoint x="580" y="220" as="targetPoint" />
          </mxGeometry>
        </mxCell>
        <mxCell id="-hSfUmGaPbUxPJK1ZaHa-10" value="ContentResolver&lt;br&gt;内容解析者" style="rounded=1;whiteSpace=wrap;html=1;hachureGap=4;fontFamily=Architects Daughter;fontSource=https%3A%2F%2Ffonts.googleapis.com%2Fcss%3Ffamily%3DArchitects%2BDaughter;fontSize=20;sketch=1;curveFitting=1;jiggle=2;" parent="1" vertex="1">
          <mxGeometry x="130" y="190" width="230" height="60" as="geometry" />
        </mxCell>
        <mxCell id="-hSfUmGaPbUxPJK1ZaHa-20" style="edgeStyle=orthogonalEdgeStyle;rounded=1;hachureGap=4;orthogonalLoop=1;jettySize=auto;html=1;strokeColor=#0B4D6A;fontFamily=Architects Daughter;fontSource=https%3A%2F%2Ffonts.googleapis.com%2Fcss%3Ffamily%3DArchitects%2BDaughter;fontSize=16;sketch=1;curveFitting=1;jiggle=2;" parent="1" source="-hSfUmGaPbUxPJK1ZaHa-11" target="-hSfUmGaPbUxPJK1ZaHa-13" edge="1">
          <mxGeometry relative="1" as="geometry" />
        </mxCell>
        <mxCell id="-hSfUmGaPbUxPJK1ZaHa-11" value="ContentResolver&lt;br&gt;内容解析者" style="rounded=1;whiteSpace=wrap;html=1;hachureGap=4;fontFamily=Architects Daughter;fontSource=https%3A%2F%2Ffonts.googleapis.com%2Fcss%3Ffamily%3DArchitects%2BDaughter;fontSize=20;sketch=1;curveFitting=1;jiggle=2;" parent="1" vertex="1">
          <mxGeometry x="130" y="60" width="230" height="60" as="geometry" />
        </mxCell>
        <mxCell id="-hSfUmGaPbUxPJK1ZaHa-21" style="edgeStyle=orthogonalEdgeStyle;rounded=1;hachureGap=4;orthogonalLoop=1;jettySize=auto;html=1;strokeColor=#0B4D6A;fontFamily=Architects Daughter;fontSource=https%3A%2F%2Ffonts.googleapis.com%2Fcss%3Ffamily%3DArchitects%2BDaughter;fontSize=16;sketch=1;curveFitting=1;jiggle=2;" parent="1" source="-hSfUmGaPbUxPJK1ZaHa-12" target="-hSfUmGaPbUxPJK1ZaHa-13" edge="1">
          <mxGeometry relative="1" as="geometry">
            <mxPoint x="640" y="280" as="targetPoint" />
          </mxGeometry>
        </mxCell>
        <mxCell id="-hSfUmGaPbUxPJK1ZaHa-12" value="ContentResolver&lt;br&gt;内容解析者" style="rounded=1;whiteSpace=wrap;html=1;hachureGap=4;fontFamily=Architects Daughter;fontSource=https%3A%2F%2Ffonts.googleapis.com%2Fcss%3Ffamily%3DArchitects%2BDaughter;fontSize=20;sketch=1;curveFitting=1;jiggle=2;" parent="1" vertex="1">
          <mxGeometry x="130" y="330" width="230" height="60" as="geometry" />
        </mxCell>
        <mxCell id="-hSfUmGaPbUxPJK1ZaHa-13" value="URI" style="ellipse;whiteSpace=wrap;html=1;hachureGap=4;fontFamily=Architects Daughter;fontSource=https%3A%2F%2Ffonts.googleapis.com%2Fcss%3Ffamily%3DArchitects%2BDaughter;fontSize=20;rounded=1;sketch=1;curveFitting=1;jiggle=2;" parent="1" vertex="1">
          <mxGeometry x="570" y="190" width="120" height="80" as="geometry" />
        </mxCell>
        <mxCell id="-hSfUmGaPbUxPJK1ZaHa-24" style="edgeStyle=orthogonalEdgeStyle;rounded=1;hachureGap=4;orthogonalLoop=1;jettySize=auto;html=1;entryX=-0.004;entryY=0.633;entryDx=0;entryDy=0;entryPerimeter=0;strokeColor=#0B4D6A;fontFamily=Architects Daughter;fontSource=https%3A%2F%2Ffonts.googleapis.com%2Fcss%3Ffamily%3DArchitects%2BDaughter;fontSize=16;sketch=1;curveFitting=1;jiggle=2;" parent="1" source="-hSfUmGaPbUxPJK1ZaHa-13" target="-hSfUmGaPbUxPJK1ZaHa-3" edge="1">
          <mxGeometry relative="1" as="geometry" />
        </mxCell>
        <mxCell id="-hSfUmGaPbUxPJK1ZaHa-26" value="&lt;p&gt;&lt;font color=&quot;#000000&quot;&gt;不同的应用都需要获取共享数据&lt;/font&gt;&lt;/p&gt;" style="text;html=1;strokeColor=none;fillColor=none;align=center;verticalAlign=middle;whiteSpace=wrap;rounded=1;fontSize=20;fontFamily=Architects Daughter;fontColor=#EEEEEE;sketch=1;curveFitting=1;jiggle=2;" parent="1" vertex="1">
          <mxGeometry x="140" y="420" width="310" height="50" as="geometry" />
        </mxCell>
        <mxCell id="-hSfUmGaPbUxPJK1ZaHa-27" value="通过URI执行CRUD" style="text;html=1;strokeColor=none;fillColor=none;align=center;verticalAlign=middle;whiteSpace=wrap;rounded=0;fontSize=20;fontFamily=Architects Daughter;" parent="1" vertex="1">
          <mxGeometry x="360" y="170" width="290" height="20" as="geometry" />
        </mxCell>
        <mxCell id="-hSfUmGaPbUxPJK1ZaHa-28" value="委托给该URI对应的ContentProvider执行" style="text;html=1;strokeColor=none;fillColor=none;align=center;verticalAlign=middle;whiteSpace=wrap;rounded=0;fontSize=20;fontFamily=Architects Daughter;" parent="1" vertex="1">
          <mxGeometry x="660" y="190" width="290" height="20" as="geometry" />
        </mxCell>
        <mxCell id="Gc-hXASb5AS-bMlCDjsN-5" value="应用A" style="rounded=1;whiteSpace=wrap;html=1;sketch=1;hachureGap=4;jiggle=2;curveFitting=1;fontFamily=Architects Daughter;fontSource=https%3A%2F%2Ffonts.googleapis.com%2Fcss%3Ffamily%3DArchitects%2BDaughter;fontSize=20;align=left;" vertex="1" parent="1">
          <mxGeometry x="40" y="760" width="340" height="80" as="geometry" />
        </mxCell>
        <mxCell id="Gc-hXASb5AS-bMlCDjsN-23" style="edgeStyle=orthogonalEdgeStyle;rounded=0;sketch=1;hachureGap=4;jiggle=2;curveFitting=1;orthogonalLoop=1;jettySize=auto;html=1;entryX=1;entryY=0.5;entryDx=0;entryDy=0;fontFamily=Architects Daughter;fontSource=https%3A%2F%2Ffonts.googleapis.com%2Fcss%3Ffamily%3DArchitects%2BDaughter;fontSize=16;" edge="1" parent="1" source="Gc-hXASb5AS-bMlCDjsN-9" target="Gc-hXASb5AS-bMlCDjsN-22">
          <mxGeometry relative="1" as="geometry" />
        </mxCell>
        <mxCell id="Gc-hXASb5AS-bMlCDjsN-9" value="data数据" style="shape=cylinder3;whiteSpace=wrap;html=1;boundedLbl=1;backgroundOutline=1;size=15;hachureGap=4;fontFamily=Architects Daughter;fontSource=https%3A%2F%2Ffonts.googleapis.com%2Fcss%3Ffamily%3DArchitects%2BDaughter;fontSize=20;rounded=1;sketch=1;curveFitting=1;jiggle=2;" vertex="1" parent="1">
          <mxGeometry x="1395" y="620" width="60" height="80" as="geometry" />
        </mxCell>
        <mxCell id="Gc-hXASb5AS-bMlCDjsN-10" style="edgeStyle=orthogonalEdgeStyle;rounded=1;hachureGap=4;orthogonalLoop=1;jettySize=auto;html=1;strokeColor=#0B4D6A;fontFamily=Architects Daughter;fontSource=https%3A%2F%2Ffonts.googleapis.com%2Fcss%3Ffamily%3DArchitects%2BDaughter;fontSize=16;sketch=1;curveFitting=1;jiggle=2;" edge="1" parent="1" source="Gc-hXASb5AS-bMlCDjsN-11">
          <mxGeometry relative="1" as="geometry">
            <mxPoint x="580" y="800" as="targetPoint" />
          </mxGeometry>
        </mxCell>
        <mxCell id="Gc-hXASb5AS-bMlCDjsN-11" value="ContentResolver&lt;br&gt;内容解析者" style="rounded=1;whiteSpace=wrap;html=1;hachureGap=4;fontFamily=Architects Daughter;fontSource=https%3A%2F%2Ffonts.googleapis.com%2Fcss%3Ffamily%3DArchitects%2BDaughter;fontSize=20;sketch=1;curveFitting=1;jiggle=2;" vertex="1" parent="1">
          <mxGeometry x="130" y="770" width="230" height="60" as="geometry" />
        </mxCell>
        <mxCell id="Gc-hXASb5AS-bMlCDjsN-32" style="edgeStyle=orthogonalEdgeStyle;rounded=0;sketch=1;hachureGap=4;jiggle=2;curveFitting=1;orthogonalLoop=1;jettySize=auto;html=1;entryX=0;entryY=0.5;entryDx=0;entryDy=0;fontFamily=Architects Daughter;fontSource=https%3A%2F%2Ffonts.googleapis.com%2Fcss%3Ffamily%3DArchitects%2BDaughter;fontSize=16;" edge="1" parent="1" source="Gc-hXASb5AS-bMlCDjsN-16" target="Gc-hXASb5AS-bMlCDjsN-22">
          <mxGeometry relative="1" as="geometry" />
        </mxCell>
        <mxCell id="Gc-hXASb5AS-bMlCDjsN-33" style="edgeStyle=orthogonalEdgeStyle;rounded=0;sketch=1;hachureGap=4;jiggle=2;curveFitting=1;orthogonalLoop=1;jettySize=auto;html=1;entryX=0;entryY=0.5;entryDx=0;entryDy=0;fontFamily=Architects Daughter;fontSource=https%3A%2F%2Ffonts.googleapis.com%2Fcss%3Ffamily%3DArchitects%2BDaughter;fontSize=16;" edge="1" parent="1" source="Gc-hXASb5AS-bMlCDjsN-16" target="Gc-hXASb5AS-bMlCDjsN-28">
          <mxGeometry relative="1" as="geometry" />
        </mxCell>
        <mxCell id="Gc-hXASb5AS-bMlCDjsN-16" value="URI" style="ellipse;whiteSpace=wrap;html=1;hachureGap=4;fontFamily=Architects Daughter;fontSource=https%3A%2F%2Ffonts.googleapis.com%2Fcss%3Ffamily%3DArchitects%2BDaughter;fontSize=20;rounded=1;sketch=1;curveFitting=1;jiggle=2;" vertex="1" parent="1">
          <mxGeometry x="570" y="770" width="120" height="80" as="geometry" />
        </mxCell>
        <mxCell id="Gc-hXASb5AS-bMlCDjsN-17" style="edgeStyle=orthogonalEdgeStyle;rounded=1;hachureGap=4;orthogonalLoop=1;jettySize=auto;html=1;entryX=-0.006;entryY=0.597;entryDx=0;entryDy=0;entryPerimeter=0;strokeColor=#0B4D6A;fontFamily=Architects Daughter;fontSource=https%3A%2F%2Ffonts.googleapis.com%2Fcss%3Ffamily%3DArchitects%2BDaughter;fontSize=16;sketch=1;curveFitting=1;jiggle=2;" edge="1" parent="1" source="Gc-hXASb5AS-bMlCDjsN-16" target="Gc-hXASb5AS-bMlCDjsN-24">
          <mxGeometry relative="1" as="geometry">
            <mxPoint x="919.0800000000004" y="807.98" as="targetPoint" />
          </mxGeometry>
        </mxCell>
        <mxCell id="Gc-hXASb5AS-bMlCDjsN-19" value="通过URI执行CRUD" style="text;html=1;strokeColor=none;fillColor=none;align=center;verticalAlign=middle;whiteSpace=wrap;rounded=0;fontSize=20;fontFamily=Architects Daughter;" vertex="1" parent="1">
          <mxGeometry x="345" y="750" width="290" height="20" as="geometry" />
        </mxCell>
        <mxCell id="Gc-hXASb5AS-bMlCDjsN-20" value="委托给该URI对应的ContentProvider执行" style="text;html=1;strokeColor=none;fillColor=none;align=center;verticalAlign=middle;whiteSpace=wrap;rounded=0;fontSize=20;fontFamily=Architects Daughter;" vertex="1" parent="1">
          <mxGeometry x="660" y="740" width="290" height="20" as="geometry" />
        </mxCell>
        <mxCell id="Gc-hXASb5AS-bMlCDjsN-21" value="ContentProvider&lt;br&gt;内容提供者" style="rounded=1;whiteSpace=wrap;html=1;hachureGap=4;fontFamily=Architects Daughter;fontSource=https%3A%2F%2Ffonts.googleapis.com%2Fcss%3Ffamily%3DArchitects%2BDaughter;fontSize=20;sketch=1;curveFitting=1;jiggle=2;" vertex="1" parent="1">
          <mxGeometry x="950" y="630" width="230" height="60" as="geometry" />
        </mxCell>
        <mxCell id="Gc-hXASb5AS-bMlCDjsN-24" value="日历" style="rounded=1;whiteSpace=wrap;html=1;sketch=1;hachureGap=4;jiggle=2;curveFitting=1;fontFamily=Architects Daughter;fontSource=https%3A%2F%2Ffonts.googleapis.com%2Fcss%3Ffamily%3DArchitects%2BDaughter;fontSize=20;align=right;" vertex="1" parent="1">
          <mxGeometry x="935" y="760" width="340" height="80" as="geometry" />
        </mxCell>
        <mxCell id="Gc-hXASb5AS-bMlCDjsN-25" style="edgeStyle=orthogonalEdgeStyle;rounded=0;sketch=1;hachureGap=4;jiggle=2;curveFitting=1;orthogonalLoop=1;jettySize=auto;html=1;entryX=1;entryY=0.5;entryDx=0;entryDy=0;fontFamily=Architects Daughter;fontSource=https%3A%2F%2Ffonts.googleapis.com%2Fcss%3Ffamily%3DArchitects%2BDaughter;fontSize=16;" edge="1" parent="1" source="Gc-hXASb5AS-bMlCDjsN-26" target="Gc-hXASb5AS-bMlCDjsN-24">
          <mxGeometry relative="1" as="geometry" />
        </mxCell>
        <mxCell id="Gc-hXASb5AS-bMlCDjsN-26" value="data数据" style="shape=cylinder3;whiteSpace=wrap;html=1;boundedLbl=1;backgroundOutline=1;size=15;hachureGap=4;fontFamily=Architects Daughter;fontSource=https%3A%2F%2Ffonts.googleapis.com%2Fcss%3Ffamily%3DArchitects%2BDaughter;fontSize=20;rounded=1;sketch=1;curveFitting=1;jiggle=2;" vertex="1" parent="1">
          <mxGeometry x="1395" y="760" width="60" height="80" as="geometry" />
        </mxCell>
        <mxCell id="Gc-hXASb5AS-bMlCDjsN-27" value="ContentProvider&lt;br&gt;内容提供者" style="rounded=1;whiteSpace=wrap;html=1;hachureGap=4;fontFamily=Architects Daughter;fontSource=https%3A%2F%2Ffonts.googleapis.com%2Fcss%3Ffamily%3DArchitects%2BDaughter;fontSize=20;sketch=1;curveFitting=1;jiggle=2;" vertex="1" parent="1">
          <mxGeometry x="950" y="770" width="230" height="60" as="geometry" />
        </mxCell>
        <mxCell id="Gc-hXASb5AS-bMlCDjsN-28" value="闹钟" style="rounded=1;whiteSpace=wrap;html=1;sketch=1;hachureGap=4;jiggle=2;curveFitting=1;fontFamily=Architects Daughter;fontSource=https%3A%2F%2Ffonts.googleapis.com%2Fcss%3Ffamily%3DArchitects%2BDaughter;fontSize=20;align=right;" vertex="1" parent="1">
          <mxGeometry x="935" y="890" width="340" height="80" as="geometry" />
        </mxCell>
        <mxCell id="Gc-hXASb5AS-bMlCDjsN-29" style="edgeStyle=orthogonalEdgeStyle;rounded=0;sketch=1;hachureGap=4;jiggle=2;curveFitting=1;orthogonalLoop=1;jettySize=auto;html=1;entryX=1;entryY=0.5;entryDx=0;entryDy=0;fontFamily=Architects Daughter;fontSource=https%3A%2F%2Ffonts.googleapis.com%2Fcss%3Ffamily%3DArchitects%2BDaughter;fontSize=16;" edge="1" parent="1" source="Gc-hXASb5AS-bMlCDjsN-30" target="Gc-hXASb5AS-bMlCDjsN-28">
          <mxGeometry relative="1" as="geometry" />
        </mxCell>
        <mxCell id="Gc-hXASb5AS-bMlCDjsN-30" value="data数据" style="shape=cylinder3;whiteSpace=wrap;html=1;boundedLbl=1;backgroundOutline=1;size=15;hachureGap=4;fontFamily=Architects Daughter;fontSource=https%3A%2F%2Ffonts.googleapis.com%2Fcss%3Ffamily%3DArchitects%2BDaughter;fontSize=20;rounded=1;sketch=1;curveFitting=1;jiggle=2;" vertex="1" parent="1">
          <mxGeometry x="1395" y="890" width="60" height="80" as="geometry" />
        </mxCell>
        <mxCell id="Gc-hXASb5AS-bMlCDjsN-31" value="ContentProvider&lt;br&gt;内容提供者" style="rounded=1;whiteSpace=wrap;html=1;hachureGap=4;fontFamily=Architects Daughter;fontSource=https%3A%2F%2Ffonts.googleapis.com%2Fcss%3Ffamily%3DArchitects%2BDaughter;fontSize=20;sketch=1;curveFitting=1;jiggle=2;" vertex="1" parent="1">
          <mxGeometry x="950" y="900" width="230" height="60" as="geometry" />
        </mxCell>
      </root>
    </mxGraphModel>
  </diagram>
</mxfile>
